<svg xmlns="http://www.w3.org/2000/svg" width="1200" height="720" viewBox="0 0 1200 720" role="img" aria-labelledby="t d"><title id="t">Тепловая карта критериев ТОП-10</title><desc id="d">Нормированное сравнение 10 участников по 6 критериям.</desc><rect width="1200" height="720" fill="#fff"/><text x="55" y="58" font-family="Arial,sans-serif" font-size="32" font-weight="700" fill="#0E3455">ТОП-10 по критериям</text><g font-family="Arial,sans-serif" font-size="16" fill="#294d65"><text x="530" y="104" text-anchor="middle">C1</text><text x="625" y="104" text-anchor="middle">C2</text><text x="720" y="104" text-anchor="middle">C3</text><text x="815" y="104" text-anchor="middle">C4</text><text x="910" y="104" text-anchor="middle">C5</text><text x="1005" y="104" text-anchor="middle">C6</text></g><text x="55" y="156" font-family="Arial,sans-serif" font-size="17" fill="#173f59">1. Ada Tours</text><rect x="487" y="125" width="86" height="40" rx="7" fill="#2F6B8F" fill-opacity="0.79"/><text x="530" y="151" text-anchor="middle" font-family="Arial,sans-serif" font-size="16" font-weight="700" fill="#fff">18/20</text><rect x="582" y="125" width="86" height="40" rx="7" fill="#2F6B8F" fill-opacity="0.86"/><text x="625" y="151" text-anchor="middle" font-family="Arial,sans-serif" font-size="16" font-weight="700" fill="#fff">15/15</text><rect x="677" y="125" width="86" height="40" rx="7" fill="#2F6B8F" fill-opacity="0.86"/><text x="720" y="151" text-anchor="middle" font-family="Arial,sans-serif" font-size="16" font-weight="700" fill="#fff">20/20</text><rect x="772" y="125" width="86" height="40" rx="7" fill="#2F6B8F" fill-opacity="0.86"/><text x="815" y="151" text-anchor="middle" font-family="Arial,sans-serif" font-size="16" font-weight="700" fill="#fff">15/15</text><rect x="867" y="125" width="86" height="40" rx="7" fill="#2F6B8F" fill-opacity="0.86"/><text x="910" y="151" text-anchor="middle" font-family="Arial,sans-serif" font-size="16" font-weight="700" fill="#fff">15/15</text><rect x="962" y="125" width="86" height="40" rx="7" fill="#2F6B8F" fill-opacity="0.72"/><text x="1005" y="151" text-anchor="middle" font-family="Arial,sans-serif" font-size="16" font-weight="700" fill="#fff">12/15</text><text x="55" y="208" font-family="Arial,sans-serif" font-size="17" fill="#173f59">2. Royal Safari</text><rect x="487" y="177" width="86" height="40" rx="7" fill="#2F6B8F" fill-opacity="0.86"/><text x="530" y="203" text-anchor="middle" font-family="Arial,sans-serif" font-size="16" font-weight="700" fill="#fff">20/20</text><rect x="582" y="177" width="86" height="40" rx="7" fill="#2F6B8F" fill-opacity="0.86"/><text x="625" y="203" text-anchor="middle" font-family="Arial,sans-serif" font-size="16" font-weight="700" fill="#fff">15/15</text><rect x="677" y="177" width="86" height="40" rx="7" fill="#2F6B8F" fill-opacity="0.75"/><text x="720" y="203" text-anchor="middle" font-family="Arial,sans-serif" font-size="16" font-weight="700" fill="#fff">17/20</text><rect x="772" y="177" width="86" height="40" rx="7" fill="#2F6B8F" fill-opacity="0.76"/><text x="815" y="203" text-anchor="middle" font-family="Arial,sans-serif" font-size="16" font-weight="700" fill="#fff">13/15</text><rect x="867" y="177" width="86" height="40" rx="7" fill="#2F6B8F" fill-opacity="0.86"/><text x="910" y="203" text-anchor="middle" font-family="Arial,sans-serif" font-size="16" font-weight="700" fill="#fff">15/15</text><rect x="962" y="177" width="86" height="40" rx="7" fill="#2F6B8F" fill-opacity="0.76"/><text x="1005" y="203" text-anchor="middle" font-family="Arial,sans-serif" font-size="16" font-weight="700" fill="#fff">13/15</text><text x="55" y="260" font-family="Arial,sans-serif" font-size="17" fill="#173f59">3. ICS Travel Group</text><rect x="487" y="229" width="86" height="40" rx="7" fill="#2F6B8F" fill-opacity="0.68"/><text x="530" y="255" text-anchor="middle" font-family="Arial,sans-serif" font-size="16" font-weight="700" fill="#fff">15/20</text><rect x="582" y="229" width="86" height="40" rx="7" fill="#2F6B8F" fill-opacity="0.62"/><text x="625" y="255" text-anchor="middle" font-family="Arial,sans-serif" font-size="16" font-weight="700" fill="#fff">10/15</text><rect x="677" y="229" width="86" height="40" rx="7" fill="#2F6B8F" fill-opacity="0.79"/><text x="720" y="255" text-anchor="middle" font-family="Arial,sans-serif" font-size="16" font-weight="700" fill="#fff">18/20</text><rect x="772" y="229" width="86" height="40" rx="7" fill="#2F6B8F" fill-opacity="0.81"/><text x="815" y="255" text-anchor="middle" font-family="Arial,sans-serif" font-size="16" font-weight="700" fill="#fff">14/15</text><rect x="867" y="229" width="86" height="40" rx="7" fill="#2F6B8F" fill-opacity="0.86"/><text x="910" y="255" text-anchor="middle" font-family="Arial,sans-serif" font-size="16" font-weight="700" fill="#fff">15/15</text><rect x="962" y="229" width="86" height="40" rx="7" fill="#2F6B8F" fill-opacity="0.62"/><text x="1005" y="255" text-anchor="middle" font-family="Arial,sans-serif" font-size="16" font-weight="700" fill="#fff">10/15</text><text x="55" y="312" font-family="Arial,sans-serif" font-size="17" fill="#173f59">4. Larus Travel</text><rect x="487" y="281" width="86" height="40" rx="7" fill="#2F6B8F" fill-opacity="0.75"/><text x="530" y="307" text-anchor="middle" font-family="Arial,sans-serif" font-size="16" font-weight="700" fill="#fff">17/20</text><rect x="582" y="281" width="86" height="40" rx="7" fill="#2F6B8F" fill-opacity="0.52"/><text x="625" y="307" text-anchor="middle" font-family="Arial,sans-serif" font-size="16" font-weight="700" fill="#0E3455">8/15</text><rect x="677" y="281" width="86" height="40" rx="7" fill="#2F6B8F" fill-opacity="0.75"/><text x="720" y="307" text-anchor="middle" font-family="Arial,sans-serif" font-size="16" font-weight="700" fill="#fff">17/20</text><rect x="772" y="281" width="86" height="40" rx="7" fill="#2F6B8F" fill-opacity="0.81"/><text x="815" y="307" text-anchor="middle" font-family="Arial,sans-serif" font-size="16" font-weight="700" fill="#fff">14/15</text><rect x="867" y="281" width="86" height="40" rx="7" fill="#2F6B8F" fill-opacity="0.86"/><text x="910" y="307" text-anchor="middle" font-family="Arial,sans-serif" font-size="16" font-weight="700" fill="#fff">15/15</text><rect x="962" y="281" width="86" height="40" rx="7" fill="#2F6B8F" fill-opacity="0.62"/><text x="1005" y="307" text-anchor="middle" font-family="Arial,sans-serif" font-size="16" font-weight="700" fill="#fff">10/15</text><text x="55" y="364" font-family="Arial,sans-serif" font-size="17" fill="#173f59">5. АРТ-ТУР</text><rect x="487" y="333" width="86" height="40" rx="7" fill="#2F6B8F" fill-opacity="0.72"/><text x="530" y="359" text-anchor="middle" font-family="Arial,sans-serif" font-size="16" font-weight="700" fill="#fff">16/20</text><rect x="582" y="333" width="86" height="40" rx="7" fill="#2F6B8F" fill-opacity="0.48"/><text x="625" y="359" text-anchor="middle" font-family="Arial,sans-serif" font-size="16" font-weight="700" fill="#0E3455">7/15</text><rect x="677" y="333" width="86" height="40" rx="7" fill="#2F6B8F" fill-opacity="0.79"/><text x="720" y="359" text-anchor="middle" font-family="Arial,sans-serif" font-size="16" font-weight="700" fill="#fff">18/20</text><rect x="772" y="333" width="86" height="40" rx="7" fill="#2F6B8F" fill-opacity="0.76"/><text x="815" y="359" text-anchor="middle" font-family="Arial,sans-serif" font-size="16" font-weight="700" fill="#fff">13/15</text><rect x="867" y="333" width="86" height="40" rx="7" fill="#2F6B8F" fill-opacity="0.86"/><text x="910" y="359" text-anchor="middle" font-family="Arial,sans-serif" font-size="16" font-weight="700" fill="#fff">15/15</text><rect x="962" y="333" width="86" height="40" rx="7" fill="#2F6B8F" fill-opacity="0.67"/><text x="1005" y="359" text-anchor="middle" font-family="Arial,sans-serif" font-size="16" font-weight="700" fill="#fff">11/15</text><text x="55" y="416" font-family="Arial,sans-serif" font-size="17" fill="#173f59">6. Карибский клуб</text><rect x="487" y="385" width="86" height="40" rx="7" fill="#2F6B8F" fill-opacity="0.57"/><text x="530" y="411" text-anchor="middle" font-family="Arial,sans-serif" font-size="16" font-weight="700" fill="#0E3455">12/20</text><rect x="582" y="385" width="86" height="40" rx="7" fill="#2F6B8F" fill-opacity="0.38"/><text x="625" y="411" text-anchor="middle" font-family="Arial,sans-serif" font-size="16" font-weight="700" fill="#0E3455">5/15</text><rect x="677" y="385" width="86" height="40" rx="7" fill="#2F6B8F" fill-opacity="0.79"/><text x="720" y="411" text-anchor="middle" font-family="Arial,sans-serif" font-size="16" font-weight="700" fill="#fff">18/20</text><rect x="772" y="385" width="86" height="40" rx="7" fill="#2F6B8F" fill-opacity="0.86"/><text x="815" y="411" text-anchor="middle" font-family="Arial,sans-serif" font-size="16" font-weight="700" fill="#fff">15/15</text><rect x="867" y="385" width="86" height="40" rx="7" fill="#2F6B8F" fill-opacity="0.86"/><text x="910" y="411" text-anchor="middle" font-family="Arial,sans-serif" font-size="16" font-weight="700" fill="#fff">15/15</text><rect x="962" y="385" width="86" height="40" rx="7" fill="#2F6B8F" fill-opacity="0.72"/><text x="1005" y="411" text-anchor="middle" font-family="Arial,sans-serif" font-size="16" font-weight="700" fill="#fff">12/15</text><text x="55" y="468" font-family="Arial,sans-serif" font-size="17" fill="#173f59">7. PAM Travel</text><rect x="487" y="437" width="86" height="40" rx="7" fill="#2F6B8F" fill-opacity="0.54"/><text x="530" y="463" text-anchor="middle" font-family="Arial,sans-serif" font-size="16" font-weight="700" fill="#0E3455">11/20</text><rect x="582" y="437" width="86" height="40" rx="7" fill="#2F6B8F" fill-opacity="0.43"/><text x="625" y="463" text-anchor="middle" font-family="Arial,sans-serif" font-size="16" font-weight="700" fill="#0E3455">6/15</text><rect x="677" y="437" width="86" height="40" rx="7" fill="#2F6B8F" fill-opacity="0.79"/><text x="720" y="463" text-anchor="middle" font-family="Arial,sans-serif" font-size="16" font-weight="700" fill="#fff">18/20</text><rect x="772" y="437" width="86" height="40" rx="7" fill="#2F6B8F" fill-opacity="0.76"/><text x="815" y="463" text-anchor="middle" font-family="Arial,sans-serif" font-size="16" font-weight="700" fill="#fff">13/15</text><rect x="867" y="437" width="86" height="40" rx="7" fill="#2F6B8F" fill-opacity="0.86"/><text x="910" y="463" text-anchor="middle" font-family="Arial,sans-serif" font-size="16" font-weight="700" fill="#fff">15/15</text><rect x="962" y="437" width="86" height="40" rx="7" fill="#2F6B8F" fill-opacity="0.72"/><text x="1005" y="463" text-anchor="middle" font-family="Arial,sans-serif" font-size="16" font-weight="700" fill="#fff">12/15</text><text x="55" y="520" font-family="Arial,sans-serif" font-size="17" fill="#173f59">8. Nervous Waters</text><rect x="487" y="489" width="86" height="40" rx="7" fill="#2F6B8F" fill-opacity="0.86"/><text x="530" y="515" text-anchor="middle" font-family="Arial,sans-serif" font-size="16" font-weight="700" fill="#fff">20/20</text><rect x="582" y="489" width="86" height="40" rx="7" fill="#2F6B8F" fill-opacity="0.57"/><text x="625" y="515" text-anchor="middle" font-family="Arial,sans-serif" font-size="16" font-weight="700" fill="#0E3455">9/15</text><rect x="677" y="489" width="86" height="40" rx="7" fill="#2F6B8F" fill-opacity="0.75"/><text x="720" y="515" text-anchor="middle" font-family="Arial,sans-serif" font-size="16" font-weight="700" fill="#fff">17/20</text><rect x="772" y="489" width="86" height="40" rx="7" fill="#2F6B8F" fill-opacity="0.67"/><text x="815" y="515" text-anchor="middle" font-family="Arial,sans-serif" font-size="16" font-weight="700" fill="#fff">11/15</text><rect x="867" y="489" width="86" height="40" rx="7" fill="#2F6B8F" fill-opacity="0.14"/><text x="910" y="515" text-anchor="middle" font-family="Arial,sans-serif" font-size="16" font-weight="700" fill="#0E3455">0/15</text><rect x="962" y="489" width="86" height="40" rx="7" fill="#2F6B8F" fill-opacity="0.86"/><text x="1005" y="515" text-anchor="middle" font-family="Arial,sans-serif" font-size="16" font-weight="700" fill="#fff">15/15</text><text x="55" y="572" font-family="Arial,sans-serif" font-size="17" fill="#173f59">9. Untamed Angling</text><rect x="487" y="541" width="86" height="40" rx="7" fill="#2F6B8F" fill-opacity="0.86"/><text x="530" y="567" text-anchor="middle" font-family="Arial,sans-serif" font-size="16" font-weight="700" fill="#fff">20/20</text><rect x="582" y="541" width="86" height="40" rx="7" fill="#2F6B8F" fill-opacity="0.52"/><text x="625" y="567" text-anchor="middle" font-family="Arial,sans-serif" font-size="16" font-weight="700" fill="#0E3455">8/15</text><rect x="677" y="541" width="86" height="40" rx="7" fill="#2F6B8F" fill-opacity="0.64"/><text x="720" y="567" text-anchor="middle" font-family="Arial,sans-serif" font-size="16" font-weight="700" fill="#fff">14/20</text><rect x="772" y="541" width="86" height="40" rx="7" fill="#2F6B8F" fill-opacity="0.52"/><text x="815" y="567" text-anchor="middle" font-family="Arial,sans-serif" font-size="16" font-weight="700" fill="#0E3455">8/15</text><rect x="867" y="541" width="86" height="40" rx="7" fill="#2F6B8F" fill-opacity="0.14"/><text x="910" y="567" text-anchor="middle" font-family="Arial,sans-serif" font-size="16" font-weight="700" fill="#0E3455">0/15</text><rect x="962" y="541" width="86" height="40" rx="7" fill="#2F6B8F" fill-opacity="0.86"/><text x="1005" y="567" text-anchor="middle" font-family="Arial,sans-serif" font-size="16" font-weight="700" fill="#fff">15/15</text><text x="55" y="624" font-family="Arial,sans-serif" font-size="17" fill="#173f59">10. Fishing Brazil Adventures</text><rect x="487" y="593" width="86" height="40" rx="7" fill="#2F6B8F" fill-opacity="0.86"/><text x="530" y="619" text-anchor="middle" font-family="Arial,sans-serif" font-size="16" font-weight="700" fill="#fff">20/20</text><rect x="582" y="593" width="86" height="40" rx="7" fill="#2F6B8F" fill-opacity="0.43"/><text x="625" y="619" text-anchor="middle" font-family="Arial,sans-serif" font-size="16" font-weight="700" fill="#0E3455">6/15</text><rect x="677" y="593" width="86" height="40" rx="7" fill="#2F6B8F" fill-opacity="0.68"/><text x="720" y="619" text-anchor="middle" font-family="Arial,sans-serif" font-size="16" font-weight="700" fill="#fff">15/20</text><rect x="772" y="593" width="86" height="40" rx="7" fill="#2F6B8F" fill-opacity="0.38"/><text x="815" y="619" text-anchor="middle" font-family="Arial,sans-serif" font-size="16" font-weight="700" fill="#0E3455">5/15</text><rect x="867" y="593" width="86" height="40" rx="7" fill="#2F6B8F" fill-opacity="0.14"/><text x="910" y="619" text-anchor="middle" font-family="Arial,sans-serif" font-size="16" font-weight="700" fill="#0E3455">0/15</text><rect x="962" y="593" width="86" height="40" rx="7" fill="#2F6B8F" fill-opacity="0.86"/><text x="1005" y="619" text-anchor="middle" font-family="Arial,sans-serif" font-size="16" font-weight="700" fill="#fff">15/15</text><text x="55" y="680" font-family="Arial,sans-serif" font-size="16" fill="#587183">C1 специализация · C2 география · C3 под ключ · C4 большое путешествие · C5 русский язык · C6 доказательность</text></svg>